<?xml version="1.0" encoding="UTF-8" standalone="no"?>
<svg
   xmlns:dc="http://purl.org/dc/elements/1.1/"
   xmlns:cc="http://creativecommons.org/ns#"
   xmlns:rdf="http://www.w3.org/1999/02/22-rdf-syntax-ns#"
   xmlns:svg="http://www.w3.org/2000/svg"
   xmlns="http://www.w3.org/2000/svg"
   height="100%"
   width="100%"
   viewBox="0 0 256 256"
   id="svg2"
   version="1.1">
  <style>
    .electrons {
      stroke:#19F28A;
      stroke-width:14;
      fill:#19F28A;
    }
    .shells {
      stroke:#19F28A;
      stroke-width:14;
      stroke-opacity: 0.45;
      fill:none;
    }
  </style>
  <defs>
    <circle
       r="30"
       id="electron"
       cx="0"
       cy="0"
       style="fill:#77868b;stroke:none" />
  </defs>
  <metadata>
    <rdf:RDF>
      <cc:Work
         rdf:about="">
        <dc:format>image/svg+xml</dc:format>
        <dc:type
           rdf:resource="http://purl.org/dc/dcmitype/StillImage" />
        <dc:title>PhosphorJS</dc:title>
      </cc:Work>
    </rdf:RDF>
  </metadata>
  <g
     id="layer1"
     transform="translate(0.5084746,-798.70117)">
    <g
       id="g6444"
       transform="matrix(0.53760603,0,0,0.53759406,-246.30533,655.07525)">
      <circle
         class="shells"
         cy="514.76215"
         cx="695.29883"
         id="shell_1-2"
         r="66.909088" />
      <circle
         class="shells"
         cy="514.76215"
         cx="695.29883"
         id="shell_2-2"
         r="132.46513" />
      <circle
         class="shells"
         cy="514.76215"
         cx="695.29883"
         id="shell_3-8"
         r="200" />
      <circle
         
         cy="447.85306"
         cx="695.29883"
         id="electron_0_shell_1-5"
         r="15"
         class="electrons" />
      <circle
         transform="scale(-1,-1)"
         
         cy="-581.67126"
         cx="-695.29883"
         id="electron_1_shell_1-5"
         r="15"
         class="electrons" />
      <circle
         
         cy="382.297"
         cx="695.29883"
         id="electron_0_shell_2-5"
         r="15"
         class="electrons" />
      <circle
         transform="matrix(0.70710678,0.70710678,-0.70710678,0.70710678,0,0)"
         
         cy="-260.12387"
         cx="855.64233"
         r="15"
         id="electron_1_shell_2-6"
         class="electrons" />
      <circle
         transform="matrix(0,1,-1,0,0,0)"
         
         cy="-827.76398"
         cx="514.76215"
         id="electron_2_shell_2-7"
         r="15"
         class="electrons" />
      <circle
         transform="matrix(-0.70710678,0.70710678,-0.70710678,-0.70710678,0,0)"
         
         cy="-988.10742"
         cx="-127.65872"
         r="15"
         id="electron_3_shell_2-3"
         class="electrons" />
      <circle
         transform="scale(-1,-1)"
         
         cy="-647.22729"
         cx="-695.29883"
         id="electron_4_shell_2-1"
         r="15"
         class="electrons" />
      <circle
         transform="matrix(-0.70710678,-0.70710678,0.70710678,-0.70710678,0,0)"
         
         cy="-4.8064284"
         cx="-855.64233"
         r="15"
         id="electron_5_shell_2-0"
         class="electrons" />
      <circle
         transform="matrix(0,-1,1,0,0,0)"
         
         cy="562.83368"
         cx="-514.76215"
         id="electron_6_shell_2-9"
         r="15"
         class="electrons" />
      <circle
         transform="matrix(0.70710678,-0.70710678,0.70710678,0.70710678,0,0)"
         
         cy="723.17719"
         cx="127.65872"
         r="15"
         id="electron_7_shell_2-4"
         class="electrons" />
      <circle
         
         cy="314.76215"
         cx="695.29883"
         id="electron_0_shell_3-1"
         r="15"
         class="electrons" />
      <circle
         transform="matrix(0.30901699,0.95105652,-0.95105652,0.30901699,0,0)"
         
         cy="-702.19824"
         cx="704.42706"
         id="electron_1_shell_3-9"
         r="15"
         class="electrons" />
      <circle
         transform="matrix(-0.80901699,0.58778525,-0.58778525,-0.80901699,0,0)"
         
         cy="-1025.1377"
         cx="-259.93896"
         id="electron_2_shell_3-1"
         r="15"
         class="electrons" />
      <circle
         transform="matrix(-0.80901699,-0.58778525,0.58778525,-0.80901699,0,0)"
         
         cy="-207.76494"
         cx="-865.07819"
         id="electron_3_shell_3-1"
         r="15"
         class="electrons" />
      <circle
         transform="matrix(0.30901699,-0.95105652,0.95105652,0.30901699,0,0)"
         
         cy="620.33875"
         cx="-274.70874"
         id="electron_4_shell_3-9"
         r="15"
         class="electrons" />
    </g>
  </g>
</svg>
